<?xml version="1.0" encoding="UTF-8" standalone="no"?>
<svg
   viewBox="762 0 649.99998 650"
   xml:space="preserve"
   version="1.1"
   id="svg4"
   sodipodi:docname="logo.svg"
   width="650"
   height="650"
   inkscape:version="1.4 (e7c3feb100, 2024-10-09)"
   xmlns:inkscape="http://www.inkscape.org/namespaces/inkscape"
   xmlns:sodipodi="http://sodipodi.sourceforge.net/DTD/sodipodi-0.dtd"
   xmlns="http://www.w3.org/2000/svg"
   xmlns:svg="http://www.w3.org/2000/svg"><defs
     id="defs4" /><sodipodi:namedview
     id="namedview4"
     pagecolor="#ffffff"
     bordercolor="#666666"
     borderopacity="1.0"
     inkscape:showpageshadow="2"
     inkscape:pageopacity="0.0"
     inkscape:pagecheckerboard="0"
     inkscape:deskcolor="#d1d1d1"
     inkscape:zoom="1.5476923"
     inkscape:cx="218.38966"
     inkscape:cy="325"
     inkscape:window-width="3840"
     inkscape:window-height="2091"
     inkscape:window-x="0"
     inkscape:window-y="32"
     inkscape:window-maximized="1"
     inkscape:current-layer="svg4" /><linearGradient
     id="a"
     gradientUnits="userSpaceOnUse"
     x1="626.69501"
     y1="707.49597"
     x2="1641.942"
     y2="-578.48102"
     gradientTransform="matrix(1,0,0,-1,0,650)"><stop
       offset="0"
       style="stop-color:#00c6ff"
       id="stop1" /><stop
       offset="1"
       style="stop-color:#0072ff"
       id="stop2" /></linearGradient><linearGradient
     id="b"
     gradientUnits="userSpaceOnUse"
     x1="628.08099"
     y1="708.59003"
     x2="1643.3311"
     y2="-577.39099"
     gradientTransform="matrix(1,0,0,-1,0,650)"><stop
       offset="0"
       style="stop-color:#00c6ff"
       id="stop3" /><stop
       offset="1"
       style="stop-color:#0072ff"
       id="stop4" /></linearGradient><g
     id="g4"
     transform="translate(130.65)"><path
       d="M 1147.1,526.4 V 150.1 c 0,-17.9 -8.9,-34.6 -23.8,-44.7 L 984.7,11.9 c -18.3,-12.3 -41.9,-12.3 -60.2,0 l -138.7,93.6 c -14.9,10 -23.8,26.7 -23.8,44.6 v 399.1 c 0,55.6 45.2,100.8 100.8,100.8 55.6,0 100.8,-45.2 100.8,-100.8 V 436.5 c 61.3,-4.6 109.7,-55.9 109.7,-118.3 V 192.4 c 0,-4.9 -4,-8.9 -8.9,-8.9 v -1.2 H 1048 c -6.6,0 -11.9,5.3 -11.9,11.9 v 24.5 c 0,6.6 5.3,11.9 11.9,11.9 h 7.4 v 87.6 C 1055.4,373.8 1010.2,419 954.6,419 899,419 853.8,373.8 853.8,318.2 v -87.6 h 7.4 c 6.6,0 11.9,-5.3 11.9,-11.9 v -24.5 c 0,-6.6 -5.3,-11.9 -11.9,-11.9 h -16.4 v 1.2 c -4.9,0 -8.9,4 -8.9,8.9 v 125.8 c 0,62.4 48.5,113.7 109.7,118.3 v 112.8 c 0,45.7 -37.2,82.9 -82.9,82.9 -45.7,0 -82.9,-37.2 -82.9,-82.9 V 150.1 c 0,-12 5.9,-23.1 15.9,-29.8 L 934.4,26.8 c 12.2,-8.2 28,-8.2 40.2,0 l 138.7,93.5 c 9.9,6.7 15.9,17.9 15.9,29.8 v 376.2 c -29.7,4.1 -52.7,29.7 -52.7,60.5 0,33.7 27.4,61.1 61.1,61.1 33.7,0 61.1,-27.4 61.1,-61.1 0,-30.5 -22.4,-55.8 -51.6,-60.4 z m -9.5,103.6 c -23.8,0 -43.2,-19.4 -43.2,-43.2 0,-23.8 19.4,-43.2 43.2,-43.2 23.8,0 43.2,19.4 43.2,43.2 0.1,23.8 -19.3,43.2 -43.2,43.2 z"
       style="fill:url(#a)"
       id="path2" /><circle
       cx="1137.6"
       cy="586.79999"
       r="25"
       style="fill:url(#b)"
       id="circle4" /></g></svg>
